# xmcd CD database file
#
# Track frame offsets:
#	187
#	17852
#	32280
#	52075
#	67587
#	80915
#	104447
#	118692
#	129215
#	145142
#	158245
#	170727
#	184457
#
# Disc length: 2720 seconds
#
# Revision: 1
# Processed by: cddbd v1.5.2PL0 Copyright (c) Steve Scherf et al.
# Submitted via: CDex 1.51
#
DISCID=b10a9e0d
DTITLE=Paul Weller - Heavy Soul
DYEAR=1997
DGENRE=Rock
TTITLE0=Heavy Soul, Pt. 1
TTITLE1=Peacock Suit
TTITLE2=Up in Suzes' Room
TTITLE3=Brushed
TTITLE4=Driving Nowhere
TTITLE5=I Should Have Been There to Inspire You
TTITLE6=Heavy Soul, Pt. 2
TTITLE7=Friday Street
TTITLE8=Science
TTITLE9=Golden Sands
TTITLE10=As You Lean into the Light
TTITLE11=Mermaids
TTITLE12=Eyes Of Storm (Bonus Track)
EXTD=YEAR: 1997
EXTT0=
EXTT1=
EXTT2=
EXTT3=
EXTT4=
EXTT5=
EXTT6=
EXTT7=
EXTT8=
EXTT9=
EXTT10=
EXTT11=
EXTT12=
PLAYORDER=
